<svg width="24" height="24" viewBox="0 0 24 24" fill="none" xmlns="http://www.w3.org/2000/svg">
<path d="M5.86481 23.2001C5.39002 23.1996 4.92196 23.0882 4.49811 22.8743C4.07425 22.6603 3.70639 22.3497 3.42401 21.968C3.14206 21.5858 2.9536 21.1432 2.87372 20.6751C2.79384 20.2069 2.82477 19.726 2.96403 19.2719L3.56161 17.3321C3.8195 16.4813 4.34499 15.7362 5.06 15.2079C5.775 14.6795 6.64137 14.396 7.53041 14.3993H12.5456C12.6008 14.3993 12.6528 14.4102 12.7056 14.4118C12.7288 14.4118 12.748 14.3993 12.7696 14.3993H20.104C20.2947 14.3993 20.4827 14.3545 20.653 14.2688C20.8234 14.1831 20.9712 14.0587 21.0848 13.9055C21.1982 13.7521 21.2739 13.5748 21.3058 13.3868C21.3378 13.1988 21.3251 13.0057 21.2688 12.8235L20.7608 11.1727C20.6226 10.7163 20.3408 10.317 19.9573 10.0336C19.5737 9.75026 19.1089 9.59803 18.632 9.60005H15.0432C14.8311 9.60005 14.6276 9.5157 14.4775 9.36567C14.3275 9.21565 14.2432 9.01222 14.2432 8.80005C14.2432 8.58788 14.3275 8.38445 14.4775 8.23442C14.6276 8.0844 14.8311 8.00005 15.0432 8.00005H18.632C19.4512 7.99678 20.2496 8.2576 20.9088 8.7438C21.5681 9.23 22.0531 9.91571 22.292 10.6993L22.7984 12.3524C22.9302 12.7736 22.9603 13.2196 22.8861 13.6547C22.812 14.0899 22.6358 14.5017 22.372 14.8555C22.1111 15.2115 21.7697 15.5003 21.3757 15.6993C20.9817 15.8982 20.5462 16.0014 20.1048 16.0001H15.8136C16.1267 16.3974 16.3648 16.8485 16.516 17.3313L17.1136 19.2711C17.2529 19.7252 17.2838 20.2061 17.2039 20.6743C17.124 21.1425 16.9356 21.585 16.6536 21.9672C16.3711 22.3491 16.003 22.6595 15.5788 22.8735C15.1547 23.0874 14.6863 23.199 14.2112 23.1993L5.86481 23.2001ZM5.08961 17.8032L4.492 19.743C4.42599 19.9576 4.41129 20.185 4.44908 20.4063C4.48688 20.6276 4.57612 20.8375 4.70961 21.018C4.84331 21.1986 5.01741 21.3449 5.21801 21.4461C5.4186 21.5474 5.6401 21.6005 5.86481 21.6008H14.2104C14.4353 21.6016 14.6572 21.5491 14.858 21.4477C15.0588 21.3463 15.2327 21.1995 15.3656 21.018C15.5 20.8379 15.5898 20.6278 15.6276 20.4063C15.6654 20.1848 15.6502 19.9575 15.5832 19.743L14.9856 17.8032C14.8272 17.2799 14.5041 16.8217 14.0643 16.4969C13.6245 16.1722 13.0915 15.9982 12.5448 16.0008H7.51762C6.97309 16.001 6.44305 16.1763 6.00582 16.5008C5.5686 16.8254 5.24737 17.282 5.08961 17.8032ZM6.67282 9.60005C6.67282 8.75136 7.00995 7.93767 7.61007 7.33755C8.21019 6.73743 9.02412 6.40005 9.87282 6.40005C10.7215 6.40005 11.5354 6.73743 12.1356 7.33755C12.7357 7.93767 13.0728 8.75136 13.0728 9.60005C13.0728 10.4487 12.7357 11.2624 12.1356 11.8625C11.5354 12.4627 10.7215 12.8 9.87282 12.8C9.02412 12.8 8.21019 12.4627 7.61007 11.8625C7.00995 11.2624 6.67282 10.4487 6.67282 9.60005ZM8.27282 9.60005C8.27282 10.0244 8.44139 10.4312 8.74144 10.7313C9.0415 11.0314 9.44847 11.2 9.87282 11.2C10.2972 11.2 10.7041 11.0314 11.0042 10.7313C11.3042 10.4312 11.4728 10.0244 11.4728 9.60005C11.4728 9.1757 11.3042 8.76886 11.0042 8.4688C10.7041 8.16874 10.2972 8.00005 9.87282 8.00005C9.44847 8.00005 9.0415 8.16874 8.74144 8.4688C8.44139 8.76886 8.27282 9.1757 8.27282 9.60005ZM3.47282 6.40005V4.80005H1.87282C1.66064 4.80005 1.45717 4.7157 1.30714 4.56567C1.15711 4.41565 1.07281 4.21222 1.07281 4.00005C1.07281 3.78788 1.15711 3.58445 1.30714 3.43442C1.45717 3.28439 1.66064 3.20005 1.87282 3.20005H3.47282V1.60005C3.47282 1.38788 3.55711 1.18445 3.70714 1.03442C3.85717 0.884395 4.06064 0.800049 4.27282 0.800049C4.48499 0.800049 4.68846 0.884395 4.83849 1.03442C4.98852 1.18445 5.07282 1.38788 5.07282 1.60005V3.20005H6.67282C6.88499 3.20005 7.08846 3.28439 7.23849 3.43442C7.38852 3.58445 7.47282 3.78788 7.47282 4.00005C7.47282 4.21222 7.38852 4.41565 7.23849 4.56567C7.08846 4.7157 6.88499 4.80005 6.67282 4.80005H5.07282V6.40005C5.07282 6.61222 4.98852 6.81565 4.83849 6.96567C4.68846 7.1157 4.48499 7.20005 4.27282 7.20005C4.06064 7.20005 3.85717 7.1157 3.70714 6.96567C3.55711 6.81565 3.47282 6.61222 3.47282 6.40005ZM13.8728 3.60005C13.8728 2.85744 14.1678 2.14546 14.6929 1.62036C15.218 1.09526 15.9302 0.800049 16.6728 0.800049C17.4154 0.800049 18.1276 1.09526 18.6527 1.62036C19.1778 2.14546 19.4728 2.85744 19.4728 3.60005C19.4728 4.34266 19.1778 5.05464 18.6527 5.57974C18.1276 6.10484 17.4154 6.40005 16.6728 6.40005C15.9302 6.40005 15.218 6.10484 14.6929 5.57974C14.1678 5.05464 13.8728 4.34266 13.8728 3.60005ZM15.4728 3.60005C15.4728 3.91831 15.5992 4.22344 15.8243 4.44849C16.0493 4.67353 16.3546 4.80005 16.6728 4.80005C16.9911 4.80005 17.2963 4.67353 17.5214 4.44849C17.7464 4.22344 17.8728 3.91831 17.8728 3.60005C17.8728 3.28179 17.7464 2.97666 17.5214 2.75161C17.2963 2.52657 16.9911 2.40005 16.6728 2.40005C16.3546 2.40005 16.0493 2.52657 15.8243 2.75161C15.5992 2.97666 15.4728 3.28179 15.4728 3.60005Z" fill="#B1B5C4"/>
</svg>
