<svg width="24" height="24" viewBox="0 0 24 24" fill="none" xmlns="http://www.w3.org/2000/svg">
<path d="M19.2 14.4H14.4C13.5163 14.4 12.8 15.1163 12.8 16V20.8C12.8 21.6836 13.5163 22.4 14.4 22.4H19.2C20.0836 22.4 20.8 21.6836 20.8 20.8V16C20.8 15.1163 20.0836 14.4 19.2 14.4Z" stroke="#B1B5C4" stroke-width="1.5"/>
<path d="M7.99998 14.4H3.19998C2.31632 14.4 1.59998 15.1163 1.59998 16V20.8C1.59998 21.6836 2.31632 22.4 3.19998 22.4H7.99998C8.88363 22.4 9.59998 21.6836 9.59998 20.8V16C9.59998 15.1163 8.88363 14.4 7.99998 14.4Z" stroke="#B1B5C4" stroke-width="1.5"/>
<path d="M7.99998 2.39999H3.19998C2.31632 2.39999 1.59998 3.11634 1.59998 3.99999V8.79999C1.59998 9.68365 2.31632 10.4 3.19998 10.4H7.99998C8.88363 10.4 9.59998 9.68365 9.59998 8.79999V3.99999C9.59998 3.11634 8.88363 2.39999 7.99998 2.39999Z" stroke="#B1B5C4" stroke-width="1.5"/>
<path d="M19.2 2.39999H14.4C13.5163 2.39999 12.8 3.11634 12.8 3.99999V8.79999C12.8 9.68365 13.5163 10.4 14.4 10.4H19.2C20.0836 10.4 20.8 9.68365 20.8 8.79999V3.99999C20.8 3.11634 20.0836 2.39999 19.2 2.39999Z" stroke="#B1B5C4" stroke-width="1.5"/>
</svg>
