<svg width="24" height="24" viewBox="0 0 24 24" fill="none" xmlns="http://www.w3.org/2000/svg">
<g clip-path="url(#clip0_1137_4300)">
<path fill-rule="evenodd" clip-rule="evenodd" d="M7.50075 1.55012C7.89127 1.94065 7.89127 2.57381 7.50075 2.96434L3.96521 6.49987L7.50075 10.0354C7.89127 10.4259 7.89127 11.0591 7.50075 11.4496C7.11022 11.8401 6.47706 11.8401 6.08653 11.4496L1.84389 7.20698C1.45337 6.81645 1.45337 6.18329 1.84389 5.79276L6.08653 1.55012C6.47706 1.1596 7.11022 1.1596 7.50075 1.55012Z" fill="#B1B5C4"/>
<path fill-rule="evenodd" clip-rule="evenodd" d="M23.4504 6.49999C23.4504 7.05228 23.0027 7.5 22.4504 7.49999L4.50122 7.50007C3.94894 7.50007 3.50122 7.05235 3.50122 6.50007C3.50122 5.94778 3.94894 5.50007 4.50122 5.50007L22.4504 5.49999C23.0027 5.49999 23.4504 5.94771 23.4504 6.49999Z" fill="#B1B5C4"/>
<path fill-rule="evenodd" clip-rule="evenodd" d="M16.5006 12.5501C16.8911 12.1596 17.5243 12.1596 17.9148 12.5501L22.1575 16.7928C22.548 17.1833 22.548 17.8165 22.1575 18.207L17.9148 22.4496C17.5243 22.8401 16.8911 22.8401 16.5006 22.4496C16.1101 22.0591 16.1101 21.4259 16.5006 21.0354L20.0361 17.4999L16.5006 13.9643C16.1101 13.5738 16.1101 12.9406 16.5006 12.5501Z" fill="#B1B5C4"/>
<path fill-rule="evenodd" clip-rule="evenodd" d="M21.0001 17.5001C21.0001 18.0524 20.5523 18.5001 20.0001 18.5001L1.5509 18.5C0.998613 18.5 0.550898 18.0523 0.550898 17.5C0.550898 16.9477 0.998613 16.5 1.5509 16.5L20.0001 16.5001C20.5523 16.5001 21.0001 16.9478 21.0001 17.5001Z" fill="#B1B5C4"/>
</g>
<defs>
<clipPath id="clip0_1137_4300">
<rect width="24" height="24" fill="white"/>
</clipPath>
</defs>
</svg>
