<svg width="24" height="24" viewBox="0 0 24 24" fill="none" xmlns="http://www.w3.org/2000/svg">
<path d="M19.5104 10.704C20.2401 10.704 20.9398 10.4141 21.4558 9.89819C21.9717 9.38224 22.2616 8.68246 22.2616 7.9528C22.2618 7.59137 22.1908 7.23345 22.0526 6.89947C21.9145 6.5655 21.7118 6.26202 21.4563 6.00637C21.2009 5.75073 20.8975 5.54794 20.5636 5.40958C20.2297 5.27121 19.8718 5.2 19.5104 5.2C18.7807 5.2 18.0809 5.48986 17.565 6.00581C17.049 6.52176 16.7592 7.22154 16.7592 7.9512C16.759 8.31263 16.83 8.67056 16.9682 9.00453C17.1063 9.33851 17.3089 9.64199 17.5644 9.89763C17.8199 10.1533 18.1233 10.3561 18.4572 10.4944C18.7911 10.6328 19.149 10.704 19.5104 10.704ZM19.5104 6.852C19.8021 6.85285 20.0816 6.96909 20.2878 7.17535C20.4941 7.38161 20.6103 7.66111 20.6112 7.9528C20.6103 8.24449 20.4941 8.52399 20.2878 8.73025C20.0816 8.93651 19.8021 9.05276 19.5104 9.0536C19.2187 9.05276 18.9392 8.93651 18.7329 8.73025C18.5267 8.52399 18.4104 8.24449 18.4096 7.9528C18.4104 7.66111 18.5267 7.38161 18.7329 7.17535C18.9392 6.96909 19.2187 6.85285 19.5104 6.852ZM4.10159 10.704C4.46302 10.7041 4.82092 10.633 5.15486 10.4947C5.48879 10.3565 5.79221 10.1538 6.04778 9.89819C6.30335 9.64262 6.50605 9.3392 6.64432 9.00527C6.78258 8.67133 6.85369 8.31343 6.85359 7.952C6.85369 7.59057 6.78258 7.23267 6.64432 6.89873C6.50605 6.5648 6.30335 6.26138 6.04778 6.00581C5.79221 5.75024 5.48879 5.54753 5.15486 5.40927C4.82092 5.27101 4.46302 5.1999 4.10159 5.2C3.74023 5.2 3.38241 5.27119 3.04856 5.4095C2.71472 5.54781 2.4114 5.75053 2.15591 6.00609C1.90043 6.26165 1.69779 6.56503 1.55958 6.89892C1.42137 7.2328 1.35028 7.59064 1.35039 7.952C1.35028 8.31336 1.42137 8.6712 1.55958 9.00508C1.69779 9.33897 1.90043 9.64235 2.15591 9.89791C2.4114 10.1535 2.71472 10.3562 3.04856 10.4945C3.38241 10.6328 3.74023 10.704 4.10159 10.704ZM4.10159 6.852C4.39272 6.85348 4.67149 6.96989 4.87721 7.17591C5.08293 7.38192 5.19894 7.66086 5.19999 7.952C5.19914 8.24369 5.0829 8.52319 4.87664 8.72945C4.67038 8.93571 4.39088 9.05196 4.09919 9.0528C3.80805 9.05111 3.52937 8.93449 3.3238 8.72833C3.11823 8.52216 3.00243 8.24314 3.00159 7.952C3.00264 7.66059 3.11887 7.38141 3.32493 7.17535C3.531 6.96928 3.81017 6.85305 4.10159 6.852ZM17.736 14.1056C17.25 13.4313 16.5622 12.929 15.772 12.6712C14.9818 12.4134 14.1302 12.4134 13.34 12.6712C12.8416 12.8235 12.3235 12.9011 11.8024 12.9016C11.2813 12.9011 10.7631 12.8235 10.2648 12.6712C9.47467 12.4127 8.62278 12.4124 7.83247 12.6703C7.04215 12.9282 6.3544 13.4309 5.86879 14.1056C5.4294 14.7602 5.19644 15.5316 5.19999 16.32V17.8608C5.20084 18.298 5.37506 18.7171 5.68446 19.026C5.99386 19.335 6.41316 19.5086 6.85039 19.5088H16.752C17.1894 19.508 17.6085 19.3336 17.9175 19.024C18.2265 18.7145 18.4 18.295 18.4 17.8576V16.32C18.4086 15.5316 18.177 14.7592 17.736 14.1056ZM16.7592 17.8576H6.85359V16.32C6.85559 15.7182 7.09135 15.1408 7.51108 14.7095C7.93082 14.2783 8.50169 14.0271 9.10319 14.0088C9.9589 14.3695 10.8778 14.5566 11.8064 14.5592C12.735 14.5566 13.6539 14.3695 14.5096 14.0088C15.1115 14.0259 15.6831 14.2767 16.103 14.7082C16.523 15.1397 16.7584 15.7179 16.7592 16.32V17.8576ZM19.92 11.8048H19.0984C18.5248 11.8049 17.9644 11.9762 17.4888 12.2968C17.9517 12.6408 18.3519 13.0619 18.672 13.5416C18.807 13.4888 18.9502 13.4598 19.0952 13.456H19.92C20.2482 13.4568 20.5627 13.5876 20.7947 13.8197C21.0268 14.0517 21.1575 14.3662 21.1584 14.6944C21.159 14.9132 21.2462 15.1228 21.4009 15.2775C21.5556 15.4322 21.7652 15.5194 21.984 15.52C22.2028 15.5194 22.4124 15.4322 22.5671 15.2775C22.7218 15.1228 22.809 14.9132 22.8096 14.6944C22.8099 14.3148 22.7353 13.939 22.5902 13.5882C22.4451 13.2375 22.2323 12.9188 21.964 12.6504C21.6956 12.3821 21.3769 12.1692 21.0262 12.0241C20.6754 11.8791 20.2995 11.8045 19.92 11.8048ZM11.8032 11.8048C12.3091 11.805 12.8101 11.7055 13.2775 11.512C13.745 11.3185 14.1697 11.0348 14.5274 10.677C14.8852 10.3193 15.1689 9.89459 15.3624 9.42715C15.5559 8.9597 15.6554 8.45871 15.6552 7.9528C15.6554 7.44689 15.5559 6.9459 15.3624 6.47846C15.1689 6.01101 14.8852 5.58629 14.5274 5.22856C14.1697 4.87082 13.745 4.5871 13.2775 4.39359C12.8101 4.20008 12.3091 4.10059 11.8032 4.1008C10.7821 4.10122 9.80306 4.50719 9.0813 5.22941C8.35953 5.95162 7.95418 6.93095 7.95439 7.952C7.95403 8.45797 8.0534 8.95904 8.24681 9.42658C8.44023 9.89412 8.72389 10.319 9.08159 10.6768C9.43937 11.0346 9.86417 11.3185 10.3317 11.512C10.7993 11.7056 11.3004 11.8051 11.8064 11.8048H11.8032ZM11.8032 5.7512C12.3874 5.75078 12.9478 5.98238 13.3613 6.39509C13.7747 6.8078 14.0074 7.36781 14.008 7.952C14.0076 8.53577 13.7755 9.09551 13.3627 9.5083C12.9499 9.92109 12.3902 10.1532 11.8064 10.1536C11.2226 10.1532 10.6629 9.92109 10.2501 9.5083C9.8373 9.09551 9.60521 8.53577 9.60479 7.952C9.60542 7.36837 9.83761 6.80883 10.2504 6.39622C10.6631 5.9836 11.2228 5.75162 11.8064 5.7512H11.8032ZM6.12319 12.2968C5.64762 11.9762 5.08714 11.8049 4.51359 11.8048H3.68879C2.92302 11.8061 2.18898 12.1108 1.6475 12.6523C1.10602 13.1938 0.801257 13.9278 0.799988 14.6936C0.80041 14.9125 0.887503 15.1223 1.04222 15.2772C1.19693 15.4321 1.40668 15.5194 1.62559 15.52C1.84436 15.5194 2.05398 15.4322 2.20868 15.2775C2.36337 15.1228 2.45055 14.9132 2.45119 14.6944C2.45203 14.3662 2.58278 14.0517 2.81484 13.8197C3.0469 13.5876 3.3614 13.4568 3.68959 13.456H4.51439C4.65942 13.4591 4.80273 13.4881 4.93759 13.5416C5.25974 13.0623 5.6609 12.6411 6.12399 12.296L6.12319 12.2968Z" fill="#FCFCFD"/>
</svg>
