<svg width="24" height="24" viewBox="0 0 24 24" fill="none" xmlns="http://www.w3.org/2000/svg">
<path d="M5.98999 4.92899C6.13044 5.06961 6.20933 5.26024 6.20933 5.45899C6.20933 5.65774 6.13044 5.84836 5.98999 5.98899C5.20067 6.77829 4.57454 7.71533 4.14736 8.74662C3.72018 9.7779 3.50031 10.8832 3.50031 11.9995C3.50031 13.1157 3.72018 14.2211 4.14736 15.2524C4.57454 16.2836 5.20067 17.2207 5.98999 18.01C6.12655 18.1515 6.20206 18.341 6.20025 18.5376C6.19845 18.7343 6.11949 18.9224 5.98037 19.0613C5.84124 19.2003 5.6531 19.2791 5.45645 19.2807C5.2598 19.2824 5.07038 19.2067 4.92899 19.07C1.02399 15.165 1.02399 8.83399 4.92899 4.92899C5.06962 4.78854 5.26024 4.70965 5.45899 4.70965C5.65775 4.70965 5.84837 4.78854 5.98899 4.92899H5.98999ZM19.071 4.92899C22.976 8.83399 22.976 15.165 19.071 19.071C18.9288 19.2035 18.7408 19.2756 18.5465 19.2722C18.3522 19.2687 18.1668 19.19 18.0294 19.0526C17.892 18.9152 17.8132 18.7298 17.8098 18.5355C17.8064 18.3412 17.8785 18.1532 18.011 18.011C18.8005 17.2217 19.4267 16.2846 19.854 15.2532C20.2813 14.2218 20.5012 13.1164 20.5012 12C20.5012 10.8836 20.2813 9.77817 19.854 8.74679C19.4267 7.71541 18.8005 6.77831 18.011 5.98899C17.9373 5.92032 17.8782 5.83752 17.8372 5.74552C17.7962 5.65352 17.7742 5.55421 17.7724 5.45351C17.7706 5.35281 17.7892 5.25278 17.8269 5.15939C17.8646 5.066 17.9207 4.98117 17.992 4.90995C18.0632 4.83873 18.148 4.78258 18.2414 4.74486C18.3348 4.70714 18.4348 4.68862 18.5355 4.69039C18.6362 4.69217 18.7355 4.71421 18.8275 4.7552C18.9195 4.7962 19.0023 4.8553 19.071 4.92899ZM8.81799 7.75699C8.95844 7.89761 9.03733 8.08823 9.03733 8.28699C9.03733 8.48574 8.95844 8.67636 8.81799 8.81699C8.39997 9.23487 8.06838 9.73101 7.84214 10.2771C7.6159 10.8231 7.49946 11.4084 7.49946 11.9995C7.49946 12.5906 7.6159 13.1758 7.84214 13.7219C8.06838 14.268 8.39997 14.7641 8.81799 15.182C8.95047 15.3242 9.0226 15.5122 9.01917 15.7065C9.01574 15.9008 8.93703 16.0862 8.79962 16.2236C8.6622 16.361 8.47682 16.4397 8.28252 16.4432C8.08822 16.4466 7.90017 16.3745 7.75799 16.242C6.63286 15.1168 6.00078 13.5907 6.00078 11.9995C6.00078 10.4083 6.63286 8.88219 7.75799 7.75699C7.89862 7.61654 8.08924 7.53765 8.28799 7.53765C8.48674 7.53765 8.67737 7.61654 8.81799 7.75699ZM16.243 7.75699C17.3681 8.88219 18.0002 10.4083 18.0002 11.9995C18.0002 13.5907 17.3681 15.1168 16.243 16.242C16.1738 16.3137 16.0911 16.3708 15.9996 16.4102C15.9081 16.4495 15.8097 16.4703 15.7102 16.4712C15.6106 16.4721 15.5118 16.4532 15.4196 16.4155C15.3274 16.3778 15.2437 16.3222 15.1732 16.2518C15.1028 16.1814 15.047 16.0977 15.0093 16.0055C14.9715 15.9134 14.9525 15.8146 14.9533 15.715C14.9541 15.6155 14.9748 15.517 15.014 15.4255C15.0533 15.334 15.1104 15.2512 15.182 15.182C15.5999 14.7641 15.9313 14.268 16.1575 13.7221C16.3836 13.1761 16.5 12.5909 16.5 12C16.5 11.409 16.3836 10.8239 16.1575 10.2779C15.9313 9.73193 15.5999 9.23585 15.182 8.81799C15.0495 8.67581 14.9774 8.48776 14.9808 8.29346C14.9842 8.09916 15.063 7.91378 15.2004 7.77636C15.3378 7.63895 15.5232 7.56024 15.7175 7.55681C15.9118 7.55338 16.0998 7.62551 16.242 7.75799L16.243 7.75699ZM12 10.5C12.3978 10.5 12.7794 10.658 13.0607 10.9393C13.342 11.2206 13.5 11.6022 13.5 12C13.5 12.3978 13.342 12.7793 13.0607 13.0606C12.7794 13.342 12.3978 13.5 12 13.5C11.6022 13.5 11.2206 13.342 10.9393 13.0606C10.658 12.7793 10.5 12.3978 10.5 12C10.5 11.6022 10.658 11.2206 10.9393 10.9393C11.2206 10.658 11.6022 10.5 12 10.5Z" fill="#B1B5C4"/>
</svg>
