<svg width="24" height="24" viewBox="0 0 24 24" fill="none" xmlns="http://www.w3.org/2000/svg">
<g clip-path="url(#clip0_1137_4251)">
<path d="M24 7.51161C24 6.68324 23.3284 6.01161 22.5001 6.01161H19.9396C20.6022 5.35799 21.0263 4.50113 21.0263 3.44586C21.0263 2.14649 20.2801 0.734985 18.1853 0.734985C15.4291 0.734985 13.1266 3.66974 12.0447 5.31486C10.9621 3.67011 8.58906 0.73536 5.83319 0.73536C3.73844 0.73536 2.99219 2.14686 2.99219 3.44624C2.99219 4.50111 3.42794 5.35836 4.10406 6.01199H1.50006C0.671686 6.01199 6.10352e-05 6.68361 6.10352e-05 7.51198V12.0019H1.51319V21.765C1.51319 22.5934 2.18479 23.265 3.01319 23.265H21.0057C21.834 23.265 22.5057 22.5934 22.5057 21.765V12.0015H24.0001V7.51161H24ZM18.1853 2.23536C19.1127 2.23536 19.5263 2.62501 19.5263 3.44626C19.5263 5.11238 17.6667 6.01124 15.9177 6.01124H13.3786C14.4443 4.42836 16.3201 2.23536 18.1853 2.23536ZM5.83316 2.23538C7.69879 2.23538 9.64539 4.42838 10.7111 6.01088H8.17126C6.42226 6.01088 4.49214 5.08876 4.49214 3.42263C4.49214 2.60176 4.90576 2.23538 5.83316 2.23538ZM22.5 10.5015H12.75V7.51161H22.5V10.5015ZM1.50004 7.51161H11.25V10.5015H1.50004V7.51161ZM3.01316 12.0015H11.25V21.7646H3.01316V12.0015ZM21.006 21.7646H12.75V12.0015H21.006V21.7646Z" fill="#B1B5C4"/>
</g>
<defs>
<clipPath id="clip0_1137_4251">
<rect width="24" height="24" fill="white"/>
</clipPath>
</defs>
</svg>
