<svg width="24" height="24" viewBox="0 0 24 24" fill="none" xmlns="http://www.w3.org/2000/svg">
<g clip-path="url(#clip0_1268_4038)">
<path d="M18.1016 21.9144C14.0256 21.9144 9.9496 21.9272 5.8728 21.9144C4.87354 21.8828 3.92421 21.4702 3.21943 20.7611C2.51466 20.0521 2.10784 19.1002 2.0824 18.1008V5.89519C2.09536 5.75497 2.1451 5.62065 2.22659 5.50581C2.30809 5.39097 2.41846 5.29968 2.54654 5.24115C2.67462 5.18263 2.81588 5.15896 2.95604 5.17252C3.09621 5.18608 3.23031 5.2364 3.3448 5.31839C3.47358 5.43108 3.56136 5.58328 3.5944 5.75119C3.60352 5.79864 3.60807 5.84686 3.608 5.89519C3.608 9.97519 3.5696 14.0552 3.608 18.1288C3.63002 18.7235 3.87703 19.2876 4.29909 19.7072C4.72116 20.1267 5.28678 20.3703 5.8816 20.3888C8.9384 20.3984 11.9936 20.3888 15.0504 20.3888C15.036 20.3704 15.0224 20.3512 15.0088 20.3312C14.5435 19.6803 14.2919 18.9009 14.2888 18.1008V3.60639H2.8448C2.8448 3.60639 2.1096 3.43839 2.0824 2.87999C2.08217 2.67417 2.16128 2.47618 2.30327 2.32719C2.44526 2.1782 2.63921 2.08966 2.8448 2.07999H15.0496C15.249 2.08896 15.4378 2.17214 15.579 2.3132C15.7202 2.45426 15.8036 2.643 15.8128 2.84239C15.8128 7.93759 15.7656 13.0336 15.8128 18.1272C15.8356 18.7159 16.0783 19.2746 16.493 19.6931C16.9077 20.1115 17.4643 20.3592 18.0528 20.3872C18.1128 20.38 18.0944 20.3872 18.232 20.3872C18.8111 20.3395 19.352 20.0791 19.7504 19.6561C20.1488 19.2332 20.3765 18.6777 20.3896 18.0968V11.2352H18.1008C17.8939 11.2117 17.6988 11.1267 17.5408 10.9912C17.4552 10.8863 17.3979 10.7612 17.3745 10.6279C17.351 10.4945 17.3622 10.3574 17.4069 10.2296C17.4516 10.1018 17.5284 9.98763 17.6299 9.89798C17.7313 9.80833 17.8541 9.74622 17.9864 9.71759C18.024 9.71189 18.062 9.70922 18.1 9.70959H21.1528H21.2096C21.3053 9.71211 21.3991 9.73734 21.4832 9.78319C21.61 9.84878 21.7169 9.94709 21.7928 10.0679C21.8688 10.1888 21.911 10.3277 21.9152 10.4704C21.9152 13.0208 21.9232 15.572 21.9152 18.1232C21.8812 19.1214 21.4679 20.0691 20.7594 20.7732C20.051 21.4773 19.1008 21.8849 18.1024 21.9128L18.1016 21.9144ZM10.4728 17.3368H7.4216C7.22357 17.3304 7.03579 17.2472 6.89797 17.1048C6.76016 16.9625 6.6831 16.7721 6.6831 16.574C6.6831 16.3759 6.76016 16.1855 6.89797 16.0431C7.03579 15.9008 7.22357 15.8176 7.4216 15.8112H10.5032C10.6998 15.8232 10.8841 15.9108 11.0176 16.0556C11.1512 16.2004 11.2235 16.3912 11.2196 16.5882C11.2157 16.7851 11.1358 16.9729 10.9966 17.1123C10.8574 17.2516 10.6697 17.3318 10.4728 17.336V17.3368ZM11.9984 14.2856H5.896C5.78093 14.2898 5.66677 14.2638 5.5648 14.2104C5.45201 14.1467 5.35652 14.0564 5.28666 13.9473C5.21681 13.8382 5.17473 13.7137 5.16407 13.5846C5.15342 13.4555 5.17453 13.3258 5.22555 13.2067C5.27658 13.0877 5.35597 12.9829 5.4568 12.9016C5.55014 12.835 5.65736 12.7904 5.7704 12.7712C5.81254 12.765 5.85502 12.7616 5.8976 12.7608H12.0008H12.0432C12.1821 12.7774 12.3141 12.8308 12.4256 12.9153C12.5371 12.9998 12.624 13.1125 12.6775 13.2418C12.731 13.371 12.7492 13.5122 12.7301 13.6508C12.711 13.7894 12.6553 13.9204 12.5688 14.0304C12.5003 14.1141 12.4132 14.1808 12.3145 14.2251C12.2158 14.2694 12.1081 14.2901 12 14.2856H11.9984ZM11.9984 11.2344H5.896C5.75298 11.225 5.61524 11.1767 5.4976 11.0949C5.37995 11.013 5.28687 10.9006 5.22836 10.7698C5.16985 10.6389 5.14814 10.4946 5.16555 10.3523C5.18297 10.2101 5.23886 10.0752 5.3272 9.96239C5.39572 9.8787 5.4828 9.81214 5.58154 9.76798C5.68027 9.72382 5.78794 9.70328 5.896 9.70799H12.0416C12.1796 9.72641 12.3104 9.7808 12.4208 9.8657C12.5312 9.9506 12.6173 10.063 12.6705 10.1917C12.7238 10.3204 12.7423 10.4608 12.7241 10.5989C12.706 10.7369 12.6519 10.8678 12.5672 10.9784C12.4988 11.0623 12.4117 11.1292 12.313 11.1738C12.2143 11.2183 12.1066 11.2394 11.9984 11.2352V11.2344ZM11.9984 8.18239H5.896C5.75338 8.17235 5.61616 8.12378 5.49898 8.04186C5.38181 7.95994 5.28907 7.84773 5.23068 7.71723C5.17228 7.58672 5.15042 7.44281 5.16742 7.30085C5.18442 7.15889 5.23964 7.02421 5.3272 6.91119C5.39572 6.8275 5.4828 6.76094 5.58154 6.71678C5.68027 6.67262 5.78794 6.65208 5.896 6.65679H12.0416C12.1565 6.65871 12.2688 6.69101 12.3672 6.75039C12.4744 6.81763 12.564 6.9096 12.6284 7.01858C12.6927 7.12757 12.7301 7.25039 12.7372 7.37677C12.7443 7.50314 12.7211 7.62938 12.6693 7.74492C12.6176 7.86045 12.539 7.96191 12.44 8.04079C12.3464 8.10683 12.2393 8.15111 12.1264 8.17039C12.0843 8.1769 12.0418 8.18038 11.9992 8.18079L11.9984 8.18239Z" fill="#B1B5C4"/>
</g>
<defs>
<clipPath id="clip0_1268_4038">
<rect width="24" height="24" fill="white"/>
</clipPath>
</defs>
</svg>
